Coordinates
version=1
nRows=13
nColumns=27
inDegrees=yes

Units are S.I. units (second, meters, Newtons, ...)
If the header above contains a line with 'inDegrees', this indicates whether rotational values are in degrees (yes) or radians (no).

endheader
time	pelvis_rotation	pelvis_tilt	pelvis_list	pelvis_tx	pelvis_ty	pelvis_tz	hip_flexion_r	hip_adduction_r	hip_rotation_r	knee_angle_r	knee_rotation_r	knee_adduction_r	knee_angle_r_beta	ankle_angle_r	subtalar_angle_r	mtp_angle_r	hip_flexion_l	hip_adduction_l	hip_rotation_l	knee_angle_l	knee_rotation_l	knee_adduction_l	knee_angle_l_beta	ankle_angle_l	subtalar_angle_l	mtp_angle_l
      5.38000000	     13.22407394	    -44.54363875	      7.96153603	     -0.06849693	      0.62989210	     -1.15036001	    112.23784067	    -47.70823357	      2.45577196	     78.28749027	      0.00000000	      9.53123449	      1.36637447	      7.59381457	      0.00000000	      0.00000000	    109.86453855	    -26.08168822	     -1.61756844	     73.26983493	      0.00000000	     -9.85978335	      1.27879986	      0.86387809	      0.00000000	      0.00000000
      5.38500000	     12.50338768	    -44.61968402	      7.88535965	     -0.06878334	      0.63214140	     -1.15018395	    112.02360085	    -46.77686759	      2.60093685	     77.80781006	      0.00000000	      9.13916474	      1.35800247	      7.37365342	      0.00000000	      0.00000000	    109.36067216	    -26.69059169	     -2.05343559	     72.84323066	      0.00000000	     -9.73845662	      1.27135421	      0.77196674	      0.00000000	      0.00000000
      5.39000000	     13.17904150	    -44.45799398	      8.01603801	     -0.06800290	      0.63423866	     -1.15077177	    111.31174452	    -47.67271387	      1.80425660	     77.46801714	      0.00000000	      9.53299213	      1.35207196	      7.32167988	      0.00000000	      0.00000000	    108.98459238	    -26.06198246	     -2.15154192	     72.46557160	      0.00000000	     -9.85873167	      1.26476282	      0.72820293	      0.00000000	      0.00000000
      5.39500000	     13.15056990	    -44.45786637	      8.00586321	     -0.06776708	      0.63636907	     -1.15097211	    110.84975385	    -47.64675176	      1.43341336	     77.05643358	      0.00000000	      9.53269715	      1.34488848	      7.19740925	      0.00000000	      0.00000000	    108.62148697	    -26.04951641	     -2.37398386	     72.07709558	      0.00000000	     -9.85838046	      1.25798263	      0.64287591	      0.00000000	      0.00000000
      5.40000000	     12.41390178	    -44.52129343	      7.93716459	     -0.06798350	      0.63850102	     -1.15083946	    110.67457290	    -46.70443181	      1.65172336	     76.58974486	      0.00000000	      9.14155813	      1.33674322	      7.00579351	      0.00000000	      0.00000000	    108.10247155	    -26.66731983	     -2.83082187	     71.67022719	      0.00000000	     -9.73529455	      1.25088144	      0.56545978	      0.00000000	      0.00000000
      5.40500000	     13.21127768	    -44.36255474	      7.82220500	     -0.06700502	      0.64060891	     -1.15130724	    109.54175586	    -47.81434633	      0.31223033	     76.21879919	      0.00000000	      9.53510372	      1.33026900	      6.99768783	      0.00000000	      0.00000000	    107.92741916	    -25.84922313	     -2.56214556	     71.30498296	      0.00000000	     -9.85637506	      1.24450673	      0.48028993	      0.00000000	      0.00000000
      5.41000000	     12.43225972	    -44.43744214	      7.96642170	     -0.06724693	      0.64259613	     -1.15133953	    109.72523317	    -46.75318688	      0.96591846	     75.78999857	      0.00000000	      9.14437580	      1.32278502	      6.73652441	      0.00000000	      0.00000000	    107.29374377	    -26.57708043	     -3.29542272	     70.92443490	      0.00000000	     -9.73375684	      1.23786491	      0.42826229	      0.00000000	      0.00000000
      5.41500000	     13.14966903	    -44.25111652	      7.84105013	     -0.06621131	      0.64459455	     -1.15181279	    108.59236871	    -47.78995980	     -0.34412738	     75.44052498	      0.00000000	      9.53709641	      1.31668555	      6.73244272	      0.00000000	      0.00000000	    107.08783319	    -25.83273612	     -3.03177509	     70.59231002	      0.00000000	     -9.85619399	      1.23206824	      0.38328783	      0.00000000	      0.00000000
      5.42000000	     12.45849213	    -44.32513609	      7.97050476	     -0.06641885	      0.64652135	     -1.15182926	    108.74534354	    -46.81805749	      0.27341936	     75.02496672	      0.00000000	      9.14962766	      1.30943269	      6.48115786	      0.00000000	      0.00000000	    106.49749394	    -26.46616534	     -3.70625093	     70.20743298	      0.00000000	     -9.73211692	      1.22535086	      0.31310963	      0.00000000	      0.00000000
      5.42500000	     13.13949069	    -44.14206789	      8.07666716	     -0.06547397	      0.64842480	     -1.15244117	    107.94534477	    -47.70972938	     -0.60464429	     74.69474925	      0.00000000	      9.54017582	      1.30366931	      6.42612880	      0.00000000	      0.00000000	    106.15520870	    -25.83460725	     -3.73675352	     69.86844800	      0.00000000	     -9.85578213	      1.21943446	      0.26043296	      0.00000000	      0.00000000
      5.43000000	     12.47145323	    -44.20561882	      7.97763092	     -0.06549226	      0.65034035	     -1.15235824	    107.77183610	    -46.86097984	     -0.38206337	     74.25937542	      0.00000000	      9.15308551	      1.29607060	      6.19869915	      0.00000000	      0.00000000	    105.70482276	    -26.37395317	     -4.12044579	     69.52205685	      0.00000000	     -9.73052775	      1.21338879	      0.18072668	      0.00000000	      0.00000000
      5.43500000	     13.14008288	    -44.00059048	      8.07062237	     -0.06449506	      0.65221902	     -1.15294540	    106.92589363	    -47.73935809	     -1.28993090	     73.93493819	      0.00000000	      9.54306976	      1.29040810	      6.15701912	      0.00000000	      0.00000000	    105.34305188	    -25.74562945	     -4.12984162	     69.18016455	      0.00000000	     -9.85538117	      1.20742165	      0.15062486	      0.00000000	      0.00000000
      5.44000000	     13.10838423	    -43.93485795	      8.08823873	     -0.06398831	      0.65404590	     -1.15319341	    106.48420421	    -47.71538728	     -1.55765000	     73.58018612	      0.00000000	      9.54433048	      1.28421651	      6.04871583	      0.00000000	      0.00000000	    104.92678917	    -25.74257205	     -4.36808411	     68.84754715	      0.00000000	     -9.85524510	      1.20161638	      0.09720184	      0.00000000	      0.00000000
